<?xml version="1.0" encoding="utf-8"?>
<!-- Generator: Adobe Illustrator 16.0.0, SVG Export Plug-In . SVG Version: 6.00 Build 0)  -->
<!DOCTYPE svg PUBLIC "-//W3C//DTD SVG 1.1//EN" "http://www.w3.org/Graphics/SVG/1.1/DTD/svg11.dtd">
<svg version="1.1" id="Слой_1" xmlns="http://www.w3.org/2000/svg" xmlns:xlink="http://www.w3.org/1999/xlink" x="0px" y="0px"
	 width="3500px" height="2000px" viewBox="0 0 3500 2000" enable-background="new 0 0 3500 2000" xml:space="preserve">
<path fill="#C5C5FF" d="M658.389,288.446c415.473-154.241,837.748-17.877,1124.141,279.127
	c286.392,297.004,887.435-204.997,1206.195,91.523c217.539,202.36,117.896,722.638-180.388,947.981
	c-405.437,306.295-1638.422,150.876-1905.136,98.751c-307.276-60.053-531.919-242.255-623.191-463.396
	C60.088,709.596,474.784,356.608,658.389,288.446z"/>
<g>
	<g>
		<path fill="#4640DE" d="M2090.334,499.074c1.405-12.574,2.152-25.347,2.152-38.294c0-6.833-0.226-13.611-0.621-20.346
			l-63.276-20.473c-3.896-26.678-11.545-52.134-22.403-75.814l41.955-51.631c-9.703-17.076-20.831-33.239-33.234-48.313
			l-63.285,20.648c-18.445-18.845-39.524-35.095-62.649-48.155l3.601-66.489c-17.66-8.04-36.125-14.618-55.243-19.579
			l-39.078,53.927c-15.231-2.564-30.873-3.919-46.834-3.919c-10.88,0-21.609,0.642-32.166,1.849l-36.181-55.923
			c-19.385,3.943-38.17,9.531-56.208,16.611l0.082,66.588c-23.825,11.837-45.728,26.96-65.109,44.787l-62.086-23.956
			c-13.193,14.416-25.17,29.961-35.754,46.488l39.181,53.787c-12.128,23.126-21.125,48.149-26.414,74.518l-64.263,17.101
			c-1.405,12.572-2.152,25.346-2.152,38.294c0,6.833,0.226,13.61,0.621,20.345l63.276,20.473
			c3.895,26.679,11.545,52.134,22.404,75.815l-41.957,51.63c9.704,17.077,20.831,33.24,33.235,48.314l63.286-20.649
			c18.443,18.845,39.522,35.095,62.647,48.155l-3.6,66.489c17.661,8.039,36.125,14.618,55.244,19.579l39.078-53.927
			c15.23,2.564,30.874,3.918,46.834,3.918c10.881,0,21.608-0.642,32.166-1.849l36.18,55.922c19.385-3.943,38.171-9.531,56.208-16.61
			l-0.082-66.588c23.826-11.837,45.729-26.96,65.111-44.787l62.085,23.955c13.192-14.416,25.171-29.961,35.755-46.486
			l-39.182-53.787c12.129-23.126,21.125-48.15,26.414-74.519L2090.334,499.074z M1751.415,594.555
			c-73.882,0-133.775-59.893-133.775-133.774s59.895-133.775,133.775-133.775s133.774,59.894,133.774,133.775
			S1825.297,594.555,1751.415,594.555z"/>
		<g>
			<path fill="#FFFFFF" d="M1933.871,613.351c-1.127,0-2.26-0.379-3.194-1.155c-2.123-1.767-2.413-4.918-0.646-7.042
				c33.622-40.429,52.138-91.701,52.138-144.374c0-25.224-4.125-49.99-12.262-73.613c-0.899-2.611,0.488-5.457,3.1-6.356
				c2.61-0.898,5.455,0.488,6.355,3.1c8.498,24.673,12.807,50.536,12.807,76.87c0,55.004-19.337,108.548-54.448,150.768
				C1936.729,612.737,1935.307,613.351,1933.871,613.351z"/>
		</g>
		<g>
			<path fill="#FFFFFF" d="M1914.504,297.608c-1.229,0-2.461-0.451-3.427-1.359c-22.593-21.272-48.763-37.396-77.782-47.925
				c-2.596-0.942-3.937-3.811-2.995-6.406c0.942-2.596,3.813-3.937,6.405-2.995c30.309,10.997,57.637,27.834,81.229,50.044
				c2.01,1.894,2.104,5.059,0.213,7.068C1917.161,297.081,1915.834,297.608,1914.504,297.608z"/>
		</g>
		<g>
			<path fill="#FFFFFF" d="M1699.526,241.854c-2.235,0-4.271-1.51-4.845-3.776c-0.676-2.677,0.946-5.396,3.624-6.072
				c18.832-4.753,38.319-7.164,57.923-7.164c2.762,0,5,2.239,5,5s-2.238,5-5,5c-18.778,0-37.442,2.309-55.476,6.86
				C1700.344,241.804,1699.932,241.854,1699.526,241.854z"/>
		</g>
	</g>
	<g>
		<path fill="#4640DE" d="M1015.143,1346.111c0.974-8.708,1.49-17.556,1.49-26.523c0-4.732-0.154-9.428-0.43-14.092l-43.828-14.182
			c-2.698-18.478-7.997-36.108-15.52-52.513l29.063-35.761c-6.722-11.829-14.429-23.023-23.021-33.465l-43.834,14.303
			c-12.775-13.053-27.375-24.308-43.393-33.354l2.493-46.054c-12.232-5.567-25.022-10.125-38.264-13.562l-27.067,37.352
			c-10.55-1.774-21.384-2.714-32.439-2.714c-7.535,0-14.968,0.444-22.279,1.28l-25.06-38.734
			c-13.427,2.731-26.438,6.603-38.933,11.506l0.057,46.121c-16.503,8.199-31.673,18.674-45.099,31.021l-43.003-16.593
			c-9.139,9.984-17.435,20.753-24.766,32.198l27.139,37.256c-8.4,16.019-14.632,33.351-18.295,51.613l-44.512,11.846
			c-0.973,8.709-1.49,17.556-1.49,26.523c0,4.732,0.154,9.428,0.43,14.091l43.829,14.182c2.697,18.479,7.996,36.109,15.518,52.513
			l-29.061,35.761c6.722,11.829,14.429,23.023,23.021,33.465l43.834-14.303c12.775,13.053,27.375,24.31,43.394,33.354l-2.493,46.054
			c12.232,5.567,25.021,10.125,38.264,13.561l27.067-37.352c10.55,1.776,21.384,2.715,32.438,2.715
			c7.536,0,14.968-0.445,22.28-1.281l25.06,38.734c13.427-2.73,26.438-6.603,38.933-11.505l-0.057-46.122
			c16.503-8.199,31.674-18.674,45.099-31.021l43.003,16.594c9.138-9.985,17.435-20.752,24.765-32.199l-27.138-37.255
			c8.4-16.02,14.632-33.352,18.295-51.614L1015.143,1346.111z M780.393,1412.246c-51.174,0-92.658-41.484-92.658-92.658
			s41.484-92.658,92.658-92.658s92.658,41.484,92.658,92.658S831.566,1412.246,780.393,1412.246z"/>
		<g>
			<path fill="#FFFFFF" d="M906.77,1426.802c-1.128,0-2.261-0.379-3.194-1.155c-2.123-1.766-2.413-4.918-0.647-7.041
				c23.06-27.728,35.758-62.893,35.758-99.018c0-17.299-2.828-34.285-8.408-50.486c-0.899-2.61,0.487-5.457,3.1-6.355
				c2.609-0.898,5.456,0.488,6.355,3.1c5.94,17.252,8.953,35.334,8.953,53.743c0,38.456-13.52,75.893-38.067,105.411
				C909.627,1426.188,908.203,1426.802,906.77,1426.802z"/>
		</g>
		<g>
			<path fill="#FFFFFF" d="M893.354,1208.105c-1.229,0-2.461-0.45-3.427-1.359c-15.496-14.59-33.443-25.649-53.346-32.87
				c-2.596-0.941-3.938-3.81-2.995-6.405c0.941-2.597,3.813-3.938,6.405-2.995c21.189,7.688,40.297,19.46,56.791,34.989
				c2.011,1.895,2.104,5.059,0.213,7.068C896.012,1207.578,894.686,1208.105,893.354,1208.105z"/>
		</g>
		<g>
			<path fill="#FFFFFF" d="M744.451,1169.487c-2.235,0-4.271-1.511-4.844-3.777c-0.677-2.677,0.945-5.396,3.624-6.071
				c13.165-3.322,26.788-5.009,40.494-5.009c2.763,0,5,2.238,5,5s-2.237,5-5,5c-12.881,0-25.683,1.583-38.048,4.704
				C745.269,1169.438,744.856,1169.487,744.451,1169.487z"/>
		</g>
	</g>
	<path fill="#4640DE" d="M2294.585,753.84c0-2.585-0.075-5.151-0.213-7.703l32.836-26.365c-2.573-13.158-6.604-25.793-11.93-37.726
		l-42.402-3.206c-9.638-15.213-22.121-28.442-36.702-38.945l-0.141-42.252c-11.81-6.194-24.399-11.099-37.596-14.504l-28.978,31.188
		c-4.998-0.539-10.072-0.824-15.213-0.824c-12.771,0-25.138,1.716-36.896,4.912l-33.229-26.318
		c-12.539,5.449-24.326,12.306-35.147,20.384l6.284,41.889c-12.391,12.33-22.483,26.962-29.599,43.197l-41.341,9.582
		c-3.493,12.764-5.587,26.104-6.105,39.85l36.408,21.052c1.854,18.438,7.283,35.819,15.574,51.45l-18.229,38.181
		c7.819,10.692,16.809,20.477,26.788,29.149l39.043-15.293c15.349,9.99,32.768,17.063,51.479,20.425l18.403,37.89
		c2.192,0.081,4.393,0.137,6.604,0.137c11.029,0,21.818-1.023,32.285-2.961l12.407-40.131c18.075-6.073,34.502-15.731,48.445-28.124
		l41.034,9.223c8.42-9.881,15.765-20.703,21.86-32.287l-23.784-34.935C2291.741,786.096,2294.585,770.301,2294.585,753.84z
		 M2152.711,815.669c-32.645,0-59.105-26.463-59.105-59.106c0-32.645,26.463-59.106,59.105-59.106
		c32.645,0,59.107,26.463,59.107,59.106C2211.818,789.207,2185.355,815.669,2152.711,815.669z"/>
</g>
<g>
	<g opacity="0.8">
		<path fill="#4640DE" d="M2840.972,413.319h-50.801c-19.617,0-35.576-15.959-35.576-35.575v-50.801
			c0-19.616,15.959-35.575,35.576-35.575h50.801c19.616,0,35.575,15.959,35.575,35.575v50.801
			C2876.547,397.36,2860.588,413.319,2840.972,413.319z M2790.171,305.367c-11.897,0-21.576,9.679-21.576,21.575v50.801
			c0,11.896,9.679,21.575,21.576,21.575h50.801c11.896,0,21.575-9.68,21.575-21.575v-50.801c0-11.896-9.679-21.575-21.575-21.575
			H2790.171z"/>
	</g>
	<g opacity="0.8">
		<path fill="#4640DE" d="M2601.936,413.319h-50.801c-19.615,0-35.574-15.959-35.574-35.575v-50.801
			c0-19.616,15.959-35.575,35.574-35.575h50.801c19.616,0,35.575,15.959,35.575,35.575v50.801
			C2637.511,397.36,2621.552,413.319,2601.936,413.319z M2551.135,305.367c-11.896,0-21.574,9.679-21.574,21.575v50.801
			c0,11.896,9.679,21.575,21.574,21.575h50.801c11.896,0,21.575-9.68,21.575-21.575v-50.801c0-11.896-9.679-21.575-21.575-21.575
			H2551.135z"/>
	</g>
	<g>
		<path fill="#F37168" d="M2579.71,383.744c-0.097,0-0.193-0.002-0.29-0.007c-1.763-0.085-3.398-0.942-4.472-2.344l-36.513-47.626
			c-2.017-2.63-1.52-6.396,1.11-8.411c2.629-2.016,6.396-1.521,8.412,1.11l32.2,42.001l84.066-90.069
			c2.262-2.425,6.06-2.554,8.479-0.292c2.423,2.261,2.554,6.058,0.293,8.479l-88.902,95.252
			C2582.959,383.056,2581.369,383.744,2579.71,383.744z"/>
	</g>
</g>
<path fill="#9797FF" d="M3008.895,1725.26c-207.973-10.166-915.463,7.059-1130.631,13.773
	c-215.169,6.715-464.932-8.86-594.67-31.765c-129.738-22.903-879.673,1.949-845.642,63.527
	c34.03,61.578,334.13,27.546,674.446,52.296c340.317,24.751,1105.698-3.094,1278.344,0c172.646,3.095,330.961-6.188,553.447-18.563
	C3166.677,1792.154,3129.445,1731.152,3008.895,1725.26z"/>
<g>
	<rect x="448.403" y="437.597" fill="#5E5EFC" width="434.745" height="712.571"/>
	<rect x="471.171" y="452.116" fill="#FFFFFF" width="397.685" height="670.894"/>
	<g>
		<g>
			<path fill="#9BD6E8" d="M590.122,721.146c14.969-32.201,40.302-42.515,81.903-42.515c49.533,0,75.254,17.944,82.545,44.069
				C665.865,723.916,590.122,721.146,590.122,721.146z"/>
			<path fill="#3A384D" d="M654.726,522.018c-20.969,5.887-20.05,17.668-27.036,28.605c-6.987,10.936-22.177,18.227-23.999,25.518
				c-1.823,7.291,4.677,22.48-3.038,30.986c-7.716,8.506-10.329,12.759-7.291,21.265c3.038,8.507,9.721,21.872,10.328,23.695
				c0.608,1.823,9.114,14.582,19.442,16.404s29.771,4.86,39.492,9.114c9.721,4.253,40.977-5.445,58.326-4.838
				c17.349,0.607,29.163-12.175,27.948-20.681c-1.216-8.506,12.793-25.518,12.759-40.099c-0.037-15.659-18.228-27.34-23.087-37.669
				c-4.86-10.329,0.607-28.557-17.619-39.353c-11.52-6.822-19.442-6.216-28.557-9.253
				C683.282,522.674,668.092,518.266,654.726,522.018z"/>
			<path fill="#F09959" d="M680.244,704.336c-4.742,7.001-8.219,7.291-13.366,0c-4.093-5.796-12.151-18.967-12.151-25.65v-66.698
				c0-6.684,5.469-12.151,12.151-12.151h13.366c6.683,0,12.15,5.468,12.15,12.151v66.698
				C692.395,685.369,684.497,698.058,680.244,704.336z"/>
			<path fill="#E38540" d="M680.244,599.835h-13.366c-6.683,0-12.151,5.468-12.151,12.151v59.511
				c15.009,4.778,28.706-4.72,37.67-15.421v-44.089C692.395,605.303,686.927,599.835,680.244,599.835z"/>
			<ellipse fill="#F09959" cx="673.56" cy="600.51" rx="40.403" ry="55.052"/>
			<path fill="#3A384D" d="M692.395,556.698c-25.518,43.137-63.187,38.884-63.187,38.884s0.911-57.111,30.833-60.149
				c29.923-3.038,47.542,8.972,53.618,28.789s0,32.879,0,32.879s-9.722-7.595-14.582-19.745
				C694.218,565.204,692.395,556.698,692.395,556.698z"/>
			
				<ellipse transform="matrix(-0.429 -0.9033 0.9033 -0.429 351.1426 1430.4559)" fill="#F09959" cx="627.678" cy="604.247" rx="15.949" ry="10.632"/>
			
				<ellipse transform="matrix(-0.429 0.9033 -0.9033 -0.429 1571.2346 215.243)" fill="#F09959" cx="717.586" cy="604.238" rx="15.949" ry="10.632"/>
			<path fill="#FFFFFF" d="M688.75,630.368c0,0-6.8,8.814-15.189,8.814c-8.389,0-15.188-8.814-15.188-8.814H688.75z"/>
		</g>
		<path fill="#5E5EFC" d="M721.656,808.479H619.624c-6.525,0-11.864-5.339-11.864-11.863c0-6.525,5.339-11.864,11.864-11.864
			h102.032c6.524,0,11.863,5.339,11.863,11.864C733.52,803.14,728.181,808.479,721.656,808.479z"/>
		<path fill="#5E5EFC" d="M740.337,844.93H600.942c-6.525,0-11.864-5.339-11.864-11.863c0-6.525,5.339-11.864,11.864-11.864h139.395
			c6.525,0,11.864,5.339,11.864,11.864C752.201,839.591,746.862,844.93,740.337,844.93z"/>
		<path fill="#5E5EFC" d="M840.178,976.026H501.102c-3.785,0-6.884-3.099-6.884-6.885c0-3.785,3.099-6.884,6.884-6.884h339.077
			c3.787,0,6.884,3.099,6.884,6.884C847.063,972.928,843.965,976.026,840.178,976.026z"/>
		<path fill="#5E5EFC" d="M840.178,1008.021H501.102c-3.785,0-6.884-3.099-6.884-6.885c0-3.787,3.099-6.885,6.884-6.885h339.077
			c3.787,0,6.884,3.098,6.884,6.884C847.063,1004.924,843.965,1008.021,840.178,1008.021z"/>
		<path fill="#5E5EFC" d="M840.178,1040.018H501.102c-3.785,0-6.884-3.099-6.884-6.885s3.099-6.884,6.884-6.884h339.077
			c3.787,0,6.884,3.098,6.884,6.884S843.965,1040.018,840.178,1040.018z"/>
		<g>
			<path fill="#5E5EFC" d="M792.754,729.06H548.526c-6.777,0-12.291-5.514-12.291-12.291v-225.09
				c0-6.776,5.514-12.291,12.291-12.291h244.228c6.777,0,12.291,5.515,12.291,12.291V716.77
				C805.045,723.546,799.531,729.06,792.754,729.06z M548.526,489.387c-1.242,0-2.291,1.049-2.291,2.291v225.09
				c0,1.242,1.049,2.291,2.291,2.291h244.228c1.242,0,2.291-1.049,2.291-2.291v-225.09c0-1.242-1.049-2.291-2.291-2.291H548.526
				L548.526,489.387z"/>
		</g>
		<g>
			<polygon fill="#5E5EFC" points="583.769,875.882 590.839,890.208 606.65,892.506 595.209,903.658 597.91,919.405 583.769,911.97 
				569.627,919.405 572.328,903.658 560.887,892.506 576.698,890.208 			"/>
			<polygon fill="#5E5EFC" points="641.683,875.882 648.753,890.208 664.564,892.506 653.124,903.658 655.824,919.405 
				641.683,911.97 627.541,919.405 630.242,903.658 618.801,892.506 634.612,890.208 			"/>
			<polygon fill="#5E5EFC" points="699.597,875.882 706.668,890.208 722.479,892.506 711.038,903.658 713.739,919.405 
				699.597,911.97 685.456,919.405 688.156,903.658 676.716,892.506 692.526,890.208 			"/>
			<polygon fill="#5E5EFC" points="757.511,875.882 764.582,890.208 780.393,892.506 768.952,903.658 771.653,919.405 
				757.511,911.97 743.37,919.405 746.07,903.658 734.63,892.506 750.44,890.208 			"/>
		</g>
	</g>
</g>
<g>
	<rect x="1417.617" y="437.597" fill="#5E5EFC" width="434.744" height="712.571"/>
	<rect x="1440.385" y="452.116" fill="#FFFFFF" width="397.686" height="670.894"/>
	<g>
		<g>
			<path fill="#7A4E34" d="M1578.225,596.877c0,31.917,19.218,83.414,64.549,81.761c45.332-1.652,55.359-50.739,57.114-64.593
				C1701.645,600.192,1578.225,596.877,1578.225,596.877z"/>
			<path fill="#D54A41" d="M1559.335,721.146c14.968-32.201,40.302-42.515,81.903-42.515c49.532,0,75.254,17.944,82.544,44.069
				C1635.078,723.916,1559.335,721.146,1559.335,721.146z"/>
			<path fill="#F09959" d="M1649.458,704.336c-4.743,7.001-8.219,7.291-13.367,0c-4.092-5.796-12.15-18.967-12.15-25.65v-66.698
				c0-6.684,5.468-12.151,12.15-12.151h13.367c6.683,0,12.151,5.468,12.151,12.151v66.698
				C1661.608,685.369,1653.71,698.058,1649.458,704.336z"/>
			<path fill="#E38540" d="M1649.458,599.835h-13.367c-6.683,0-12.15,5.468-12.15,12.151v59.511
				c15.008,4.778,28.706-4.72,37.669-15.421v-44.089C1661.608,605.303,1656.141,599.835,1649.458,599.835z"/>
			<ellipse fill="#F09959" cx="1642.774" cy="600.51" rx="40.402" ry="55.052"/>
			<path fill="#7A4E34" d="M1664.982,558.666c-4.802,16.931-15.323,16.734-29.993,22.294s-21.684,11.154-26.483,21.985
				c-6.122,13.81,2.779,54.078,2.779,54.078s-37.147-27.798-32.852-71.515c4.297-43.717,30.072-60.647,54.332-60.647
				c24.259,0,33.482,14.783,33.482,14.783s12.924,0.054,25.145,14.529c16.426,19.458,11.371,66.713,0,83.645
				c-11.372,16.931-18.953,22.237-18.7,21.479c0.253-0.758,10.613-39.639,5.054-63.68
				C1672.186,571.575,1664.982,558.666,1664.982,558.666z"/>
			<path fill="#FFFFFF" d="M1657.963,630.368c0,0-6.8,8.814-15.188,8.814c-8.39,0-15.189-8.814-15.189-8.814H1657.963z"/>
		</g>
		<path fill="#5E5EFC" d="M1690.869,808.479h-102.031c-6.525,0-11.864-5.339-11.864-11.863c0-6.525,5.339-11.864,11.864-11.864
			h102.031c6.525,0,11.864,5.339,11.864,11.864C1702.733,803.14,1697.395,808.479,1690.869,808.479z"/>
		<path fill="#5E5EFC" d="M1709.551,844.93h-139.395c-6.525,0-11.864-5.339-11.864-11.863c0-6.525,5.339-11.864,11.864-11.864
			h139.395c6.525,0,11.864,5.339,11.864,11.864C1721.415,839.591,1716.076,844.93,1709.551,844.93z"/>
		<path fill="#5E5EFC" d="M1809.393,976.026h-339.076c-3.787,0-6.886-3.099-6.886-6.885c0-3.785,3.099-6.884,6.886-6.884h339.076
			c3.786,0,6.885,3.099,6.885,6.884C1816.277,972.928,1813.179,976.026,1809.393,976.026z"/>
		<path fill="#5E5EFC" d="M1809.393,1008.021h-339.076c-3.787,0-6.886-3.099-6.886-6.885c0-3.787,3.099-6.885,6.886-6.885h339.076
			c3.786,0,6.885,3.098,6.885,6.884C1816.276,1004.924,1813.179,1008.021,1809.393,1008.021z"/>
		<path fill="#5E5EFC" d="M1809.393,1040.018h-339.076c-3.787,0-6.886-3.099-6.886-6.885s3.099-6.884,6.886-6.884h339.076
			c3.786,0,6.885,3.098,6.885,6.884S1813.179,1040.018,1809.393,1040.018z"/>
		<g>
			<path fill="#5E5EFC" d="M1761.968,729.06h-244.229c-6.776,0-12.29-5.514-12.29-12.291v-225.09c0-6.776,5.514-12.291,12.29-12.291
				h244.229c6.777,0,12.291,5.515,12.291,12.291V716.77C1774.259,723.546,1768.745,729.06,1761.968,729.06z M1517.739,489.387
				c-1.241,0-2.29,1.049-2.29,2.291v225.09c0,1.242,1.049,2.291,2.29,2.291h244.229c1.242,0,2.291-1.049,2.291-2.291v-225.09
				c0-1.242-1.049-2.291-2.291-2.291H1517.739L1517.739,489.387z"/>
		</g>
		<g>
			<polygon fill="#5E5EFC" points="1552.982,875.882 1560.053,890.208 1575.864,892.506 1564.423,903.658 1567.124,919.405 
				1552.982,911.97 1538.841,919.405 1541.542,903.658 1530.101,892.506 1545.911,890.208 			"/>
			<polygon fill="#5E5EFC" points="1610.896,875.882 1617.967,890.208 1633.778,892.506 1622.337,903.658 1625.038,919.405 
				1610.896,911.97 1596.755,919.405 1599.456,903.658 1588.015,892.506 1603.826,890.208 			"/>
			<polygon fill="#5E5EFC" points="1668.811,875.882 1675.881,890.208 1691.692,892.506 1680.251,903.658 1682.952,919.405 
				1668.811,911.97 1654.669,919.405 1657.37,903.658 1645.929,892.506 1661.74,890.208 			"/>
			<polygon fill="#5E5EFC" points="1726.725,875.882 1733.796,890.208 1749.605,892.506 1738.166,903.658 1740.867,919.405 
				1726.725,911.97 1712.583,919.405 1715.284,903.658 1703.844,892.506 1719.654,890.208 			"/>
		</g>
	</g>
</g>
<polygon opacity="0.2" fill="#99BBEB" enable-background="new    " points="1466.488,1143.037 780.393,1143.037 828.925,440.242 
	1491.225,440.242 "/>
<g>
	<rect x="852.462" y="307.25" fill="#5E5EFC" width="593.794" height="973.264"/>
	<rect x="883.559" y="327.082" fill="#FFFFFF" width="543.177" height="916.337"/>
	<g>
		<g>
			<path fill="#2E2D3D" d="M1104.527,519.553c-0.379-1.137-9.889-55.72-11.025-76.946c-1.137-21.228,34.115-24.26,34.115-24.26
				s28.808-15.541,49.656-7.581c20.848,7.96,35.035,21.354,44.512,38.032s-8.337,68.655-8.337,68.655L1104.527,519.553z"/>
			<path fill="#D5E1E8" d="M1039.172,694.927c-0.132-0.896,2.436-22.378,2.527-23.248c4.801-45.232,60.557-57.955,116.195-57.955
				c65.37,0,109.719,11.964,116.795,58.967c0.207,1.377,3.979,22.913,3.791,24.361
				C1157.322,698.711,1039.172,694.927,1039.172,694.927z"/>
			<path fill="#F09959" d="M1169.12,648.833c-6.478,9.562-11.226,9.958-18.256,0c-5.59-7.917-24.259-25.979-24.259-35.109
				l7.661-91.026c0-9.128,7.469-16.598,16.598-16.598h18.256c9.128,0,16.597,7.469,16.597,16.598l3.56,91.026
				C1189.275,622.854,1174.929,640.258,1169.12,648.833z"/>
			<path fill="#E38540" d="M1169.12,506.101h-18.256c-9.128,0-16.598,7.469-16.598,16.598l-6.649,80.752
				c20.499,6.525,48.18-6.738,60.422-21.354l-2.322-59.397C1185.717,513.569,1178.249,506.101,1169.12,506.101z"/>
			<path fill="#BDCCD4" d="M1097.339,620.361l29.267,54.097c0,0,15.668-12.888,17.185-10.36c1.516,2.527-2.78,34.417-2.78,34.417
				s34.873,0.475,36.389-1.042c1.517-1.516-7.075-34.638-3.537-34.638c3.537,0,14.178,9.604,14.178,9.604l32.679-52.076l-7.183-1.75
				l-53.543,28.808l-57.268-28.176L1097.339,620.361z"/>
			<polygon fill="#D54A41" points="1130.811,645.288 1152.546,659.873 1145.811,698.585 1175.125,696.949 1167.803,661.738 
				1185.819,645.288 1177.355,637.313 1139.274,637.313 			"/>
			<path fill="#D5E1E8" d="M1128.122,593.847l-26.884,25.582c0,0,27.39,48.712,28.905,48.712c1.518,0,23.243-26.856,23.243-26.856
				l13.912-0.243l21.978,23.057l25.536-45.175l-26.041-27.603c0,0-22.238,42.959-26.281,43.97s-4.071,1.516-7.342-1.011
				C1151.877,631.752,1128.122,593.847,1128.122,593.847z"/>
			<ellipse fill="#F09959" cx="1159.992" cy="507.023" rx="55.185" ry="75.193"/>
			
				<ellipse transform="matrix(-0.429 -0.9033 0.9033 -0.429 1105.4728 1723.0562)" fill="#F09959" cx="1097.334" cy="512.127" rx="21.783" ry="14.522"/>
			
				<ellipse transform="matrix(-0.429 0.9033 -0.9033 -0.429 2206.1626 -370.337)" fill="#F09959" cx="1220.132" cy="512.122" rx="21.783" ry="14.522"/>
			<path fill="#FFFFFF" d="M1184.475,537.875c0,0-10.961,17.754-24.481,17.754c-13.521,0-24.482-17.754-24.482-17.754H1184.475z"/>
			<path fill="#2E2D3D" d="M1127.617,455.873c22.743-15.92,32.978-13.267,50.035,12.888c17.057,26.154,37.524,26.615,37.524,26.615
				l2.654-27.121c0,0-25.407-49.149-59.517-42.707c-34.11,6.443-53.508,37.147-53.508,37.147s-1.66,57.548,3.1,59.511
				c4.759,1.963,5.307-18.573,8.718-22.743c3.412-4.17-3.411-23.88,1.138-32.978
				C1122.311,457.389,1127.617,455.873,1127.617,455.873z"/>
			<path fill="#2E2D3D" d="M1200.773,485.439c7.939,8.693,4.928,43.211,9.097,42.832c4.169-0.378,5.686-32.978,4.549-36.389
				C1213.282,488.471,1200.773,485.439,1200.773,485.439z"/>
		</g>
		<path fill="#5E5EFC" d="M1282.743,813.818h-253.48c-8.911,0-16.204-7.292-16.204-16.205s7.293-16.205,16.204-16.205h253.48
			c8.912,0,16.204,7.292,16.204,16.205S1291.655,813.818,1282.743,813.818z"/>
		<path fill="#5E5EFC" d="M1251.199,863.606h-190.393c-8.912,0-16.205-7.292-16.205-16.205c0-8.912,7.293-16.204,16.205-16.204
			h190.393c8.912,0,16.204,7.292,16.204,16.204C1267.403,856.314,1260.111,863.606,1251.199,863.606z"/>
		<path fill="#5E5EFC" d="M1387.566,1042.662H924.439c-5.172,0-9.403-4.23-9.403-9.402s4.231-9.402,9.403-9.402h463.127
			c5.172,0,9.402,4.23,9.402,9.402S1392.738,1042.662,1387.566,1042.662z"/>
		<path fill="#5E5EFC" d="M1387.566,1086.363H924.439c-5.172,0-9.403-4.23-9.403-9.402s4.231-9.402,9.403-9.402h463.127
			c5.172,0,9.402,4.23,9.402,9.402S1392.738,1086.363,1387.566,1086.363z"/>
		<path fill="#5E5EFC" d="M1387.566,1130.064H924.439c-5.172,0-9.403-4.23-9.403-9.402s4.231-9.403,9.403-9.403h463.127
			c5.172,0,9.402,4.231,9.402,9.403S1392.738,1130.064,1387.566,1130.064z"/>
		<g>
			<path fill="#5E5EFC" d="M1322.792,703.515H989.214c-8.248,0-14.958-6.71-14.958-14.958V381.118
				c0-8.248,6.71-14.958,14.958-14.958h333.578c8.248,0,14.958,6.71,14.958,14.958v307.438
				C1337.75,696.805,1331.04,703.515,1322.792,703.515z M989.214,376.16c-2.733,0-4.958,2.224-4.958,4.958v307.438
				c0,2.734,2.225,4.958,4.958,4.958h333.578c2.733,0,4.958-2.224,4.958-4.958V381.118c0-2.734-2.225-4.958-4.958-4.958H989.214z"/>
		</g>
		<g>
			<polygon fill="#5E5EFC" points="997.17,905.881 1006.828,925.449 1028.423,928.587 1012.797,943.819 1016.486,965.327 
				997.17,955.172 977.855,965.327 981.544,943.819 965.918,928.587 987.513,925.449 			"/>
			<polygon fill="#5E5EFC" points="1076.271,905.881 1085.93,925.449 1107.525,928.587 1091.899,943.819 1095.588,965.327 
				1076.271,955.172 1056.958,965.327 1060.646,943.819 1045.02,928.587 1066.615,925.449 			"/>
			<polygon fill="#5E5EFC" points="1155.375,905.881 1165.032,925.449 1186.627,928.587 1171.001,943.819 1174.689,965.327 
				1155.375,955.172 1136.061,965.327 1139.749,943.819 1124.122,928.587 1145.717,925.449 			"/>
			<polygon fill="#5E5EFC" points="1234.477,905.881 1244.134,925.449 1265.729,928.587 1250.104,943.819 1253.792,965.327 
				1234.477,955.172 1215.162,965.327 1218.851,943.819 1203.224,928.587 1224.819,925.449 			"/>
			<polygon fill="#5E5EFC" points="1314.835,905.881 1324.493,925.449 1346.088,928.587 1330.462,943.819 1334.15,965.327 
				1314.835,955.172 1295.521,965.327 1299.209,943.819 1283.583,928.587 1305.178,925.449 			"/>
		</g>
	</g>
</g>
<path fill="#2E5B9A" d="M2399.91,1249.23h-761.962c-4.58,0-8.293-3.713-8.293-8.293v-12.426c0-4.58,3.713-8.293,8.293-8.293h761.962
	c4.58,0,8.293,3.713,8.293,8.293v12.426C2408.203,1245.52,2404.49,1249.23,2399.91,1249.23z"/>
<g>
	<path fill="#F09959" d="M2596.109,831.407c10.323,36.397-14.892,73.905-42.668,81.786c-27.777,7.879-47.6-16.854-57.925-53.251
		c-10.323-36.398,3.823-72.292,31.602-80.173C2554.896,771.89,2585.784,795.009,2596.109,831.407z"/>
	<path fill="#F09959" d="M2440.371,1536.709c0,0,71.189,110.568,80.805,115.376c9.616,4.808,33.651,6.009,24.639,24.036
		c-9.015,18.027-12.619,88.937-21.032,92.542c-8.412,3.604-80.523,12.019-69.707,0c10.816-12.02,17.471-6.009,22.928-27.644
		c5.457-21.633,13.127-62.494,2.912-70.907s-72.711-84.129-72.711-84.129L2440.371,1536.709z"/>
	<path fill="#F09959" d="M2082.072,1584.192c0,0-86.537,142.625-102.563,155.444c-16.025,12.82-68.908,32.051-25.641,35.256
		c43.268,3.204,64.101-14.423,91.344-22.436c27.243-8.014,60.896-12.82,48.076-33.653s-7.495-66.313,20.143-95.157
		C2141.069,1594.801,2082.072,1584.192,2082.072,1584.192z"/>
	<path fill="#6791C9" d="M2523.68,1253.463c0,0-214.221-5.602-299.154,64.102c-49.679,75.318-169.858,297.55-179.201,322.039
		c6.41,6.41,42.469,17.978,58.494,16.375c47.273-56.369,109.761-105.102,134.611-149.315c30.625-54.486,40.063-81.729,89.741-86.537
		c49.679-4.807,161.854-20.832,195.509-20.832S2523.68,1253.463,2523.68,1253.463z"/>
	<polygon fill="#2E5B9A" points="2710.488,1775.278 2699.26,1775.278 2618.736,1439.322 2643.439,1439.322 	"/>
	<polygon fill="#2E5B9A" points="2374.111,1775.278 2385.341,1775.278 2477.74,1427.445 2453.037,1427.445 	"/>
	<path fill="#75A1DE" d="M2645.723,1238.789l-124.547,21.497c0,0-165.507,1.521-241.16,15.612
		c-68.829,12.818-78.972,91.024,0,198.713c44.86,61.174,82.79,109.972,160.355,164.992c19.729-14.487,27.279-19.968,32.73-54.821
		c-5.613-7.697-20.146-55.873-24.654-65.3c-42.903-89.684-100.168-122.297-100.963-131.119
		c9.614-15.624,254.684,81.439,303.409,24.343C2697.416,1358.192,2645.723,1238.789,2645.723,1238.789z"/>
	<path fill="#F37168" d="M2650.895,956.828c-32.802-4.605-66.209,1.631-97.453,24.25c-27.303,27.83-58.194,73.726-56.303,149.431
		c2.404,96.147-14.878,102.321,3.149,128.763c75.188,31.05,203.784,164.453,173.502,21.435
		c-21.929-103.557,48.093-180.747-8.395-295.618C2660.799,975.738,2655.054,966.671,2650.895,956.828z"/>
	<path fill="#D54A41" d="M2497.118,1166.692c-1.462,50.123-8.54,64.891-3.128,80.604c30.652,3.13,86.724,15.396,100.733,35.012
		c16.025,22.436,32.052,25.641,24.572,9.08c-7.479-16.559-27.242-40.063,3.205-120.724c30.448-80.66,44.871-135.146,14.957-191.235
		L2497.118,1166.692z"/>
	<path fill="#F09959" d="M2650.895,956.828c-20.197-47.816-25.158-101.539-25.158-101.539l-52.881,15.624
		c0,0,30.045,67.303,1.201,91.339c-6.133,5.11-13.242,11.313-20.615,18.826C2584.686,958.459,2618.093,952.223,2650.895,956.828z"/>
	<path fill="#E38540" d="M2627.329,868.021c-3.132-2.786-7.052-6.266-11.17-9.903l-43.133,12.744
		c-0.03,0.078-0.062,0.155-0.091,0.233c1.041,2.383,12.026,28.02,13.475,52.68c12.854-7.799,26.928-20.515,43.018-42.726
		C2628.557,876.122,2627.865,871.727,2627.329,868.021z"/>
	<path fill="#F09959" d="M2613.717,971.867c-54.465,19.048-48.424,76.426-98.55,161.046c-25.942,43.792-50.035,43.141-50.035,43.141
		s-60.841,0.487-134.427-8.511c-46.08-5.634-49.006,8.084-16.957,19.542c64.636,23.109,131.712,47.983,185.795,41.975
		c54.082-6.009,146.583-144,151.352-179.92C2657.49,999.462,2641.146,962.274,2613.717,971.867z"/>
	<g>
		<path fill="#2E5B9A" d="M2585.668,1453.324c-3.387,0-6.852-0.044-10.411-0.132c-44.389-1.098-74.604-7.237-98.882-12.171
			c-28.348-5.763-43.962-8.936-62.136-0.252c-6.978,3.334-15.334,0.382-18.668-6.596c-3.334-6.977-0.382-15.334,6.596-18.668
			c26.635-12.727,48.93-8.195,79.784-1.925c23.201,4.716,52.074,10.584,93.997,11.618c46.919,1.17,75.526-5.791,90.024-21.87
			c12.919-14.325,16.698-38.396,11.896-75.753c-1.645-12.784-3.288-23.418-4.739-32.801c-4.093-26.468-6.796-43.952-3.447-70.983
			c3.108-25.101,11.423-58.537,30.673-123.369c2.2-7.411,9.989-11.635,17.406-9.436c7.412,2.2,11.637,9.993,9.437,17.405
			c-35.873,120.813-34.054,132.58-26.396,182.104c1.478,9.548,3.149,20.369,4.839,33.509c5.924,46.065-0.073,77.229-18.873,98.075
			C2667.41,1443.547,2635.991,1453.324,2585.668,1453.324z"/>
	</g>
	<path fill="#D54A41" d="M2087.955,1704.4c-57.419,28.082-88.324,44.175-106.73,42.641c-4.347-0.361-7.947-0.806-10.969-1.276
		c-20.477,12.104-53.162,26.404-16.386,29.13c43.269,3.203,64.101-14.424,91.344-22.437s60.896-12.82,48.076-33.653
		C2090.834,1714.813,2089.05,1709.911,2087.955,1704.4z"/>
	<path fill="#D54A41" d="M2527.436,1654.431c-1.403,45.462-7.651,90.513-35.457,99.021c-7.371,2.256-14.089,2.579-20.032,1.787
		c-4.373,5.407-9.709,5.467-16.871,13.425c-10.816,12.02,61.294,3.605,69.707,0s12.019-74.514,21.032-92.542
		C2553.219,1661.313,2538.32,1657.857,2527.436,1654.431z"/>
	<g>
		<path fill="#75A1DE" d="M2306.263,1224.194h-182.414c-5.448,0-10.399-3.16-12.696-8.102l-73.716-158.649
			c-3.258-7.013-0.215-15.338,6.798-18.597c7.016-3.256,15.338-0.215,18.596,6.798l69.951,150.55h173.481c7.731,0,14,6.268,14,14
			C2320.263,1217.926,2313.995,1224.194,2306.263,1224.194z"/>
	</g>
	<path fill="#F09959" d="M2344.427,1169.131c-36.857-0.534-73.413-22.504-91.575-19.299c-18.16,3.205-77.455,44.337-69.977,45.939
		c7.479,1.602,54.486-22.764,56.089-23.134c1.604-0.371,11.752,16.874,36.858,23.209c25.104,6.334,0.178-18.814,78.002,4.688
		C2404.426,1215.818,2344.427,1169.131,2344.427,1169.131z"/>
	<path fill="#F2E5DE" d="M2645.472,913.192l5.423,43.635c0,0-47.694,2.838-71.43,16.192c-23.734,13.354-58.761,51.938-58.761,51.938
		l28.616-49.267l4.121-31.518L2645.472,913.192z"/>
	<path fill="#F2E5DE" d="M2625.173,966.61c-35.427-6.639-51.813,25.105-74.784,76.921c-22.97,51.814-62.181,114.747-69.978,122.859
		c-7.796,8.114-131.407,0-131.407,0s-3.738,35.79,0,40.063c3.739,4.272,25.107,3.739,25.107,3.739s8.546,6.823,16.559,12.226
		c8.014,5.402,75.854,15.552,107.369,13.949c31.516-1.604,60.362-4.273,64.635-9.081c4.274-4.809,90.276-137.283,95.618-184.825
		C2663.634,994.921,2643.254,969.998,2625.173,966.61z"/>
	<path fill="#303C60" d="M2520.704,748.666c-67.002,3.205-56.493,104-56.493,104s17.402,5.373,53.859-0.637
		c-2.805-10.817-1.604-38.461-1.604-38.461s4.236,22.436,9.615,36.057c7.707,3.533,16.426,0.4,31.25-3.181
		c7.612,32.025,29.122,45.559,43.85,50.188c16.273,5.116,33.498,11.218,52.729,1.604c19.23-9.615,8.655-107.904-1.556-127.668
		c-15.327-29.669-40.804-56.223-84.872-42.2C2545.382,735.399,2520.704,748.666,2520.704,748.666z"/>
	<path fill="#303C60" d="M2637.22,868.375l27.395,40.01c0,0-30.359,75.854,57.937,110.221
		c69.15,26.913,61.005,74.336,29.758,122.026c-31.248,47.691,18.695,89.338,18.695,89.338s7.617-52.83,74.805-62.802
		c91.609-13.597,117.551-136.593,49.125-198.093c-56.623-50.893-73.85-8.746-112.178-54.416
		c-38.326-45.669-110.683-14.821-110.683-14.821l-26.521-38.674L2637.22,868.375z"/>
	<g>
		<path fill="#303C60" d="M2926.446,1092.976c-0.396,0-0.796-0.096-1.168-0.299c-1.181-0.646-1.613-2.127-0.968-3.308
			c23.034-42.096,4.237-93.1-5.216-106.915c-1.002-1.465-1.952-2.949-2.959-4.521c-9.289-14.499-20.849-32.544-82.532-43.647
			c-14.855-2.675-26.885-11.504-39.618-20.854c-26.304-19.31-56.115-41.196-120.895-11.383c-1.226,0.564-2.67,0.028-3.23-1.193
			c-0.563-1.224-0.028-2.669,1.194-3.231c67.379-31.015,98.426-8.226,125.813,11.881c12.267,9.005,23.853,17.511,37.599,19.985
			c63.776,11.48,75.973,30.519,85.771,45.813c0.986,1.539,1.917,2.992,2.878,4.396c9.904,14.475,29.598,67.909,5.469,112.007
			C2928.143,1092.518,2927.309,1092.976,2926.446,1092.976z"/>
	</g>
	<g>
		<path fill="#303C60" d="M2622.59,909.372c-4.383,0-9.125-0.381-14.229-1.146c-23.44-3.512-54.889-16.831-57.354-91.64
			c-0.045-1.345,1.011-2.471,2.354-2.515c1.369-0.025,2.471,1.01,2.515,2.354c1.017,30.835,7.134,53.649,18.182,67.81
			c8.395,10.758,19.523,16.85,35.026,19.173c21.691,3.248,36.073-0.756,42.734-11.905c0.691-1.153,2.188-1.529,3.342-0.842
			c1.154,0.689,1.531,2.187,0.842,3.342C2649.893,904.229,2638.684,909.372,2622.59,909.372z"/>
	</g>
</g>
<polygon fill="#2E5B9A" points="1711.333,1775.278 1729.334,1775.278 1799.363,1239.977 1759.76,1239.977 "/>
<polygon fill="#2E5B9A" points="2322.186,1775.278 2304.184,1775.278 2234.154,1239.977 2273.758,1239.977 "/>
<g>
	<path fill="#74B570" d="M3028.137,1323.431c31.146,28.438,17.604,56.873-5.417,109.686
		c-23.021,52.812-27.083,247.807-27.083,247.807l18.959-2.708c0,0-2.709-200.412,23.021-254.577
		c25.729-54.166,36.562-81.248,59.582-63.645C3120.218,1377.596,3028.137,1323.431,3028.137,1323.431z"/>
	<path fill="#9CD499" d="M3011.027,1286.612c3.783-16.854,26.245-35.088,56.281-50.557c-4.466,24.856-18.784,65.496-3.966,73.832
		c19.986,11.242,1.948-45.499,9.66-76.688c28.205-13.773,62.133-25.031,93.38-30.632c-0.045,0.115-0.079,0.226-0.126,0.343
		c-17.604,44.687-40.623,62.29-31.146,69.062c7.132,5.094,30.359-46.524,61.031-72.984c23.022-1.229,42.5,1.895,54.022,11.017
		c17.81,14.1,29.763,26.606,11.852,69.54c-10.232,7.313-23.485,12.556-38.887,14.096c-40.624,4.062-59.582,5.416-31.146,18.957
		c13.926,6.632,37.266-0.375,56.19-4.642c-6.14,11.313-13.687,24.117-22.856,38.7c-5.814,9.248-12.225,17.279-19.031,24.222
		c-13.094,2.509-24.508,2.537-30.553-0.053c-18.957-8.125-67.707-33.854-79.895-23.021c-11.928,10.604,90.283,17.317,83.2,44.263
		c-49.542,28.544-106.232,14.962-116.254-11.248C3049.331,1345.621,2999.639,1337.34,3011.027,1286.612z"/>
	<path fill="#74B570" d="M3113.447,1479.156c-54.166-40.625-109.687-2.709-138.122,40.623c-28.438,43.333-8.125,140.83-8.125,140.83
		s10.833,0,10.833-4.063s-29.791-115.102,40.624-165.205c44.051-31.344,75.832-16.249,79.895-1.354
		c4.063,14.895-17.604,41.978-17.604,41.978L3113.447,1479.156z"/>
	<path fill="#9CD499" d="M2988.866,1395.649c54.165,0,71.77,83.957,56.874,132.706c-14.896,48.748-35.208,139.476-35.208,139.476
		l-13.541-13.542c0,0,51.457-127.288,39.271-184.162c-12.188-56.873-41.979-66.354-47.396-66.354
		C2983.45,1403.774,2988.866,1395.649,2988.866,1395.649z"/>
	<path fill="#74B570" d="M3034.296,1528.732c3.81-5.047,8.517-9.217,14.259-11.981c-0.753,4.034-1.688,7.921-2.813,11.604
		c-6.787,22.211-14.697,53.134-21.3,80.222c-0.602-3.47-1.524-8.813-2.952-17.062c-0.337-1.947-0.603-4.063-0.785-6.302
		C3026.006,1567.172,3031.02,1547.518,3034.296,1528.732z"/>
	<path fill="#9CD499" d="M3049.105,1529.14c102.914-43.332,48.692-102.795,139.42-63.524c6.392,2.767,14.18,9.742,21.978,19.358
		c-8.081,2.291-17.866,3.939-28.747,2.308c-27.083-4.063-17.604,17.604,27.082,23.021c8.424,1.021,15.258,2.429,20.939,4.418
		c21.289,40.89,30.885,94.69-14.168,113.393c-8.879,3.686-19.851,5.793-32.064,6.579c-13.902-11.05,3.395-74.986-18.039-66.161
		c-20.578,8.474,6.448,54.812,2.745,66.484c-20.312-0.369-42.798-3.686-64.288-9.011c-8.504-4.767-14.996-11.157-16.997-19.559
		c-6.771-28.438,37.916-46.04,39.271-70.415c1.246-22.407-16.379,49.298-63.068,59.85
		C3020.948,1576.159,3000.999,1549.396,3049.105,1529.14z"/>
	<path fill="#9CD499" d="M2975.775,1452.524c10.834-23.021-17.604-28.438-16.25-10.833c1.2,15.598,1.334,53.516-14.664,63.84
		c-27.592-2.99-65.129-14.106-93.507-31.055c-0.356-2.288-0.012-4.646,1.194-7.058c12.188-24.375,90.727-44.687,66.354-52.812
		c-19.414-6.472-53.429,31.723-80.838,50.961c-16.465-12.49-27.493-27.38-27.493-44.001c0-22.496,27.335-47.962,62.685-60.134
		c15.91,1.604,30.688,10.302,53.771,23.383c34.099,19.322,26.214-11.918-6.027-30.461c27.833,1.439,55.583,13.333,76.05,41.741
		c0,0-1.937,12.146,10.915,30.929c35.063,51.244-5.4,81.16-53.771,79.218C2956.93,1492.737,2968.291,1468.43,2975.775,1452.524z"/>
	<path fill="#74B570" d="M3110.188,1476.859c26.481,20.464,55.898,44.389,92.012,60.639c36.111,16.25,28.889,69.215,28.889,69.215
		s5.417-45.742-24.676-61.391c-30.094-15.648-49.955-34.308-72.826-37.918c-22.871-3.611-35.511-7.223-35.511-7.223
		s7.223-14.444,3.01-19.861S3110.188,1476.859,3110.188,1476.859z"/>
	<path fill="#74B570" d="M3240.719,1236.564c-96.9,25.88-167.922,87.871-181.163,102.918
		c-13.239,15.048-13.239,19.261-13.239,19.261l10.23,19.26l4.814-2.407c0,0-7.824-16.251,12.64-37.315
		c35.29-36.327,78.243-65.001,107.733-77.642C3211.227,1248,3240.719,1236.564,3240.719,1236.564z"/>
	<path fill="#4640DE" d="M2973.24,1772.93h37.021c26.325,0,47.666-21.341,47.666-47.666v-85.06h-132.354v85.06
		C2925.574,1751.589,2946.915,1772.93,2973.24,1772.93z"/>
	<rect x="2925.574" y="1655.409" fill="#FFFFFF" width="132.354" height="9.317"/>
	<rect x="2925.574" y="1672.398" fill="#FFFFFF" width="132.354" height="5.479"/>
</g>
<g>
	<path fill="#4640DE" d="M558.88,1657.134h31.581c6.669,0,12.075-5.405,12.075-12.075v-26.008c0-6.669-5.406-12.074-12.075-12.074
		H558.88c-6.669,0-12.075,5.405-12.075,12.074v26.008C546.805,1651.729,552.211,1657.134,558.88,1657.134z"/>
	<path fill="#4640DE" d="M457.55,1657.134h31.581c6.669,0,12.075-5.405,12.075-12.075v-26.008c0-6.669-5.406-12.074-12.075-12.074
		H457.55c-6.669,0-12.075,5.405-12.075,12.074v26.008C445.475,1651.729,450.881,1657.134,457.55,1657.134z"/>
	<path fill="#4640DE" d="M356.22,1657.134h31.581c6.669,0,12.075-5.405,12.075-12.075v-26.008c0-6.669-5.406-12.074-12.075-12.074
		H356.22c-6.669,0-12.075,5.405-12.075,12.074v26.008C344.145,1651.729,349.551,1657.134,356.22,1657.134z"/>
</g>
<g>
	<path fill="#4640DE" d="M3239.924,722.419v-31.582c0-6.668-5.404-12.075-12.074-12.075h-26.008c-6.67,0-12.076,5.407-12.076,12.075
		v31.582c0,6.668,5.406,12.075,12.076,12.075h26.008C3234.52,734.494,3239.924,729.087,3239.924,722.419z"/>
	<path fill="#4640DE" d="M3239.924,823.749v-31.581c0-6.669-5.404-12.075-12.074-12.075h-26.008c-6.67,0-12.076,5.406-12.076,12.075
		v31.581c0,6.669,5.406,12.075,12.076,12.075h26.008C3234.52,835.824,3239.924,830.417,3239.924,823.749z"/>
	<path fill="#4640DE" d="M3239.924,925.079v-31.582c0-6.669-5.404-12.075-12.074-12.075h-26.008c-6.67,0-12.076,5.406-12.076,12.075
		v31.582c0,6.669,5.406,12.075,12.076,12.075h26.008C3234.52,937.153,3239.924,931.748,3239.924,925.079z"/>
</g>
</svg>
